PathFileType	4	(X/Y/Z)	C:\Users\Vitor Bertoli\OneDrive\Documents\Yolotestes\IMG_0211_Sports2D\IMG_0211_Sports2D_m_person00.trc
DataRate	CameraRate	NumFrames	NumMarkers	Units	OrigDataRate	OrigDataStartFrame	OrigNumFrames
116	116	9	22	m	116	0	436
Frame#	Time	Hip			RHip			RKnee			RAnkle			RBigToe			RSmallToe			RHeel			LHip			LKnee			LAnkle			LBigToe			LSmallToe			LHeel			Neck			Head			Nose			RShoulder			RElbow			RWrist			LShoulder			LElbow			LWrist		
		X1	Y1	Z1	X2	Y2	Z2	X3	Y3	Z3	X4	Y4	Z4	X5	Y5	Z5	X6	Y6	Z6	X7	Y7	Z7	X8	Y8	Z8	X9	Y9	Z9	X10	Y10	Z10	X11	Y11	Z11	X12	Y12	Z12	X13	Y13	Z13	X14	Y14	Z14	X15	Y15	Z15	X16	Y16	Z16	X17	Y17	Z17	X18	Y18	Z18	X19	Y19	Z19	X20	Y20	Z20	X21	Y21	Z21	X22	Y22	Z22
0	0.0	2.0255750438771485	0.7661100836662044	0.0	1.9235706151182788	0.7929836357693348	0.0	1.8539527589885316	0.3898443542167911	0.0	1.5106565479155065	0.12808343555197202	0.0	1.6131908272873337	-0.03790511190867029	0.0	1.5623057649810554	-0.03092696295668392	0.0	1.4310076735075297	0.10504814263269438	0.0	2.122723671373952	0.764559803755901	0.0	2.3243457510818217	0.4998355973472189	0.0	2.2039238797142806	0.10427158084714525	0.0	2.3630933528113856	-0.009760044177504782	0.0	2.358306814039241	0.01108370653891739	0.0	2.146300254986818	0.04800995496087563	0.0	2.388923951318815	1.0923882557139961	0.0	2.586224184989698	1.3001754944176505	0.0	2.5731635767949768	1.15213321344592	0.0	2.1950909289613905	1.0914285623790614	0.0	1.9299075430589137	0.9072045151845294	0.0	1.9200236195357594	0.6368907993784403	0.0	2.4630314770016715	1.0057324991054235	0.0	2.4817549751006	0.7740320121184551	0.0	2.605152065156665	0.5790745814029096	0.0
1	0.008620689655172414	2.022897292738024	0.7663573981201139	0.0	1.9205682521976488	0.7929624779323907	0.0	1.853170249017565	0.3898528805529808	0.0	1.5120042920197343	0.1286303250001271	0.0	1.614371590899694	-0.036910172758080825	0.0	1.5623797458152489	-0.029781641661804564	0.0	1.4321043531079285	0.10673521296300102	0.0	2.12140418489147	0.7646244910505468	0.0	2.3235562739803983	0.4988909839854813	0.0	2.2037573131483343	0.10441015158571422	0.0	2.36410850642493	-0.010283833382967454	0.0	2.3600583624498626	0.010826343409518258	0.0	2.1458740318756915	0.05090777139710636	0.0	2.3874115530990476	1.091313112828416	0.0	2.586343065311217	1.2991521873306977	0.0	2.5721712713258498	1.15039575232938	0.0	2.1946041445794666	1.089097375841783	0.0	1.9289739374677604	0.907547902974208	0.0	1.917896580997534	0.6364680611397864	0.0	2.4627644529621078	1.0057078470960739	0.0	2.4823276619006585	0.7746306593137882	0.0	2.604954248092246	0.578278257775404	0.0
2	0.017241379310344827	2.0204580710118436	0.766607252999078	0.0	1.9178479797248578	0.7929625653836632	0.0	1.8525530843299565	0.3899487379797756	0.0	1.513346172809442	0.12928058560283595	0.0	1.6154681307941767	-0.03593301233696587	0.0	1.562460765771252	-0.02863427595683561	0.0	1.4331948380533652	0.10850548965559939	0.0	2.120212601211718	0.7646778400395131	0.0	2.3227371125059495	0.49798273839082446	0.0	2.203564002686773	0.104511546107976	0.0	2.3649603045736143	-0.010820250281465816	0.0	2.3615963835536746	0.010569612464029324	0.0	2.1454266866100262	0.053553035781043486	0.0	2.3859271209042205	1.0902264007465234	0.0	2.5863311181047997	1.298065236681537	0.0	2.571168759377323	1.1486492287043655	0.0	2.1940222838235077	1.086813746297014	0.0	1.927952099523067	0.9077283330905886	0.0	1.9157796825875792	0.6360167650576368	0.0	2.4624359014804864	1.0055778177112578	0.0	2.4828167026643277	0.775160796054722	0.0	2.6047172668012752	0.5774522429853848	0.0
3	0.02586206896551724	2.0183752603998255	0.7668643888038842	0.0	1.915561713635764	0.7929985543296697	0.0	1.8521909817464428	0.3901752409854593	0.0	1.5146899322738674	0.13008226022629973	0.0	1.6164322507683302	-0.03498767738082075	0.0	1.5625569519275617	-0.027494380391331695	0.0	1.434293166880244	0.1103896042729906	0.0	2.1192045846745873	0.7647226092698483	0.0	2.3218570801772187	0.49713313054659175	0.0	2.2033447328816385	0.10454292373082912	0.0	2.3655320041694092	-0.011392083743361694	0.0	2.362771588770414	0.01028204710985802	0.0	2.1449553688464285	0.05577955521795696	0.0	2.3844795165328065	1.089134641288191	0.0	2.586096940611451	1.2968960189441179	0.0	2.570154291878411	1.1468988187031206	0.0	2.193269489335208	1.084624175855621	0.0	1.9267753166431165	0.9076253209583144	0.0	1.9136707352093576	0.6355037671668866	0.0	2.462005189114241	1.0052843712504325	0.0	2.4831625582460943	0.7755838238206179	0.0	2.6044212162702713	0.576580542730564	0.0
4	0.034482758620689655	2.0166439079347946	0.767131882740079	0.0	1.9137173330709047	0.7930681077785396	0.0	1.8521283789456517	0.3905707056022201	0.0	1.516050773394568	0.1310482073135346	0.0	1.6172344126228668	-0.03408367165592745	0.0	1.5626460116481888	-0.026373108536612278	0.0	1.4354328631681652	0.11238747268615988	0.0	2.1183724892136397	0.7647595145532664	0.0	2.3208913438497283	0.4963554674561666	0.0	2.203108175555262	0.10448405705857819	0.0	2.365774777464919	-0.012001052425302496	0.0	2.363529832055026	0.009934295282143731	0.0	2.144465439575183	0.05752358419106898	0.0	2.3830539801291564	1.0880449601837556	0.0	2.585586373884337	1.2956501161964462	0.0	2.5691154367544433	1.1451479715215687	0.0	2.1922945306337542	1.0825492090071567	0.0	1.9254031249550305	0.9071823918479985	0.0	1.911560688163761	0.6349068059903483	0.0	2.4614480550929816	1.0048055943005858	0.0	2.4833253445475076	0.7758866160426656	0.0	2.604045426530338	0.5756557931646566	0.0
5	0.04310344827586207	2.0152146521411938	0.7673990031827572	0.0	1.9122654439049047	0.7931529739013088	0.0	1.8523820613685327	0.3911728836929428	0.0	1.517444720546465	0.13214858894727086	0.0	1.6178474318206406	-0.03323755263636557	0.0	1.56268056533229	-0.025288313489316712	0.0	1.4366552028084976	0.11445658723649352	0.0	2.11768653823983	0.7647778814316335	0.0	2.319830713601003	0.49566677913472434	0.0	2.2028594454964674	0.10432080060405301	0.0	2.365683709312825	-0.012631801821409102	0.0	2.3638748113237553	0.009506336738829588	0.0	2.143969165506668	0.05878087982404754	0.0	2.381623593967376	1.0869588146163986	0.0	2.5847643210837443	1.2943388097882944	0.0	2.568026751899	1.143400587934766	0.0	2.191069241984351	1.080588620622675	0.0	1.9238199417452881	0.9063813455063826	0.0	1.9094373577297301	0.6342092119807948	0.0	2.4607536263812086	1.0041352819645957	0.0	2.483282114009524	0.7760671345679317	0.0	2.60356622254729	0.5746788440472741	0.0
6	0.05172413793103448	2.014062995389632	0.7676427032980253	0.0	1.9111798355388043	0.793226556559189	0.0	1.8529597796936057	0.3920149564913768	0.0	1.518892698639846	0.13331958986095083	0.0	1.6182354709899898	-0.03246965430737699	0.0	1.5626009436246129	-0.024261884209585215	0.0	1.4380041035420104	0.11651349955062582	0.0	2.117131545864891	0.7647602186572945	0.0	2.3186823765631086	0.49508178097066324	0.0	2.202599301163758	0.10404702161100982	0.0	2.3652598152329816	-0.013274030476380115	0.0	2.3638174918617496	0.008984289214931608	0.0	2.143477874643256	0.059568919591113705	0.0	2.3801645361263635	1.085865408439608	0.0	2.583610327256713	1.29295755828163	0.0	2.5668516379892194	1.1416593523440552	0.0	2.189578835886528	1.0787352095262395	0.0	1.9220219089544113	0.9052195420137815	0.0	1.9072923867752651	0.6333917368817976	0.0	2.4599124084535644	1.0032748518007149	0.0	2.4830235051476914	0.7761176931676986	0.0	2.6029635212200617	0.5736483682673471	0.0
7	0.06034482758620689	2.013169693570456	0.7678458500122153	0.0	1.9104342891486685	0.7932699934724399	0.0	1.8538536106328525	0.3931072057795007	0.0	1.5204264200646174	0.13447656250821488	0.0	1.6183542492477352	-0.031796542153932565	0.0	1.5623419903096245	-0.023313185585455354	0.0	1.4395260634209344	0.11844854193246687	0.0	2.116698229976359	0.7646994554887374	0.0	2.317461086460415	0.4946043446387343	0.0	2.2023324555844077	0.10367220149855784	0.0	2.36452442500676	-0.013922316451022992	0.0	2.3633910795316	0.008370889497771847	0.0	2.1429964950442546	0.059940510519430834	0.0	2.3786580934648804	1.0847455872870717	0.0	2.582131942087332	1.2914905210900904	0.0	2.5655487938154415	1.139921208986656	0.0	2.1878144660725445	1.0769791392798547	0.0	1.9200072334752771	0.9037186621535045	0.0	1.9051204366621453	0.6324379838424239	0.0	2.4589105863808705	1.0022423938574345	0.0	2.4825542971099934	0.7760336907774494	0.0	2.6022242684605663	0.5725609581225839	0.0
8	0.06896551724137931	2.0124944112902807	0.7680051322521779	0.0	1.9099641374916425	0.7932736773396201	0.0	1.8550245488693382	0.3944216715803371	0.0	1.522081098695886	0.1355244525614398	0.0	1.6181493152834028	-0.031234139294921234	0.0	1.5618329495315384	-0.02246047303433253	0.0	1.4412629783480808	0.12013849894692595	0.0	2.1163728905477104	0.7645991240476759	0.0	2.3161815099896654	0.49422476054311976	0.0	2.2020688874020036	0.10322280106481954	0.0	2.36355018465499	-0.014555528748730296	0.0	2.3626836908468456	0.007706806303704909	0.0	2.14252822906636	0.0599956204461974	0.0	2.377086296529037	1.0835836544484077	0.0	2.5803574831885725	1.2899301336452604	0.0	2.5640833868474755	1.138177501320372	0.0	2.185772623968003	1.0753056832652028	0.0	1.9177761146561056	0.9019384343399766	0.0	1.9029117190252218	0.6313442586329645	0.0	2.4577368758288016	1.0010750211381656	0.0	2.4818894277797123	0.775830565008626	0.0	2.6013368422467953	0.5714255665499857	0.0
